<svg width="172" height="206" viewBox="0 0 172 206" fill="none" xmlns="http://www.w3.org/2000/svg">
<path d="M171.266 101.234C171.266 124.391 166.812 143.75 157.906 159.312C149.094 174.781 136.297 186.453 119.516 194.328C102.734 202.109 82.5312 206 58.9062 206H0.6875V0.40625H65.2344C86.7969 0.40625 105.5 4.25 121.344 11.9375C137.188 19.5312 149.469 30.8281 158.188 45.8281C166.906 60.7344 171.266 79.2031 171.266 101.234ZM125.984 102.359C125.984 87.1719 123.734 74.7031 119.234 64.9531C114.828 55.1094 108.266 47.8438 99.5469 43.1562C90.9219 38.4688 80.2344 36.125 67.4844 36.125H44.2812V170H62.9844C84.2656 170 100.062 164.328 110.375 152.984C120.781 141.641 125.984 124.766 125.984 102.359Z" fill="#F2F2F2"/>
</svg>
